<?xml version="1.0" encoding="utf-8"?>
<!-- Generator: Adobe Illustrator 17.0.0, SVG Export Plug-In . SVG Version: 6.00 Build 0)  -->
<!DOCTYPE svg PUBLIC "-//W3C//DTD SVG 1.1//EN" "http://www.w3.org/Graphics/SVG/1.1/DTD/svg11.dtd">
<svg version="1.1" id="Layer_1" xmlns="http://www.w3.org/2000/svg" xmlns:xlink="http://www.w3.org/1999/xlink" x="0px" y="0px"
	 width="68.043px" height="48.215px" viewBox="0 0 68.043 48.215" enable-background="new 0 0 68.043 48.215" xml:space="preserve">
<g>
	<g>
		<path fill="#FFFFFF" d="M34.801,11.082c-1.296-1.685-2.939-2.982-4.925-3.888c-1.988-0.908-4.041-1.361-6.157-1.361
			c-2.592,0-4.937,0.486-7.031,1.458c-2.097,0.972-3.889,2.3-5.378,3.985c-1.491,1.685-2.648,3.662-3.468,5.93
			c-0.821,2.268-1.231,4.698-1.231,7.291c0,2.419,0.389,4.709,1.166,6.87c0.778,2.16,1.9,4.061,3.37,5.702
			c1.468,1.643,3.261,2.939,5.379,3.888c2.116,0.951,4.514,1.426,7.193,1.426c2.635,0,4.947-0.539,6.935-1.62
			c1.986-1.08,3.672-2.593,5.054-4.536l5.249,3.952c-0.345,0.477-0.951,1.157-1.814,2.042c-0.864,0.886-2.009,1.772-3.435,2.657
			c-1.425,0.886-3.142,1.663-5.152,2.333c-2.009,0.669-4.332,1.004-6.966,1.004c-3.629,0-6.902-0.691-9.818-2.073
			c-2.917-1.382-5.401-3.197-7.453-5.444c-2.053-2.245-3.618-4.785-4.698-7.614C0.54,30.254,0,27.392,0,24.497
			c0-3.542,0.584-6.816,1.75-9.818c1.167-3.003,2.797-5.595,4.893-7.777c2.095-2.181,4.611-3.877,7.55-5.087
			C17.131,0.606,20.371,0,23.914,0c3.023,0,5.994,0.584,8.911,1.75c2.915,1.166,5.303,2.959,7.161,5.379L34.801,11.082z"/>
		<polygon fill="#FFFFFF" points="45.141,1.166 51.363,1.166 51.363,41.217 65.254,41.217 65.254,47.049 45.141,47.049 		"/>
		<path fill="#82BC00" d="M59.489,5.297c0-1.166,0.421-2.171,1.264-3.014c0.842-0.842,1.846-1.263,3.013-1.263
			c1.167,0,2.172,0.421,3.014,1.263c0.843,0.843,1.264,1.848,1.264,3.014c0,1.166-0.421,2.171-1.264,3.014
			c-0.842,0.842-1.847,1.263-3.014,1.263c-1.167,0-2.171-0.421-3.013-1.263C59.91,7.468,59.489,6.463,59.489,5.297"/>
	</g>
</g>
</svg>
